<?xml version="1.0" encoding="UTF-8"?>
<!DOCTYPE svg PUBLIC "-//W3C//DTD SVG 1.1//EN" "http://www.w3.org/Graphics/SVG/1.1/DTD/svg11.dtd">
<!-- Creator: CorelDRAW X6 -->
<svg xmlns="http://www.w3.org/2000/svg" xml:space="preserve" preserveAspectRatio="xMinYMin meet" version="1.1" style="shape-rendering:geometricPrecision; text-rendering:geometricPrecision; image-rendering:optimizeQuality; fill-rule:evenodd; clip-rule:evenodd"
viewBox="0 0 6000 6000"
 xmlns:xlink="http://www.w3.org/1999/xlink"
 enable-background="new 0 0 512 512">
 <defs>
  <style type="text/css">
   <![CDATA[
    .fil0 {fill:none}
    .fil1 {fill:#CCCCCC}
   ]]>
  </style>
 </defs>
 <g id="Camada_x0020_1">
  <metadata id="CorelCorpID_0Corel-Layer"/>
  <rect class="fil0" width="6000" height="6000"/>
  <path class="fil1" d="M4182 2268l-371 0 1478 -1478 -80 -80 -1525 1525 -238 -239c0,0 -1,-1 -1,-1l0 0 0 0c-41,-40 -96,-65 -158,-65l-286 0 -286 0c-62,0 -118,25 -158,65l0 0 0 0c0,0 -1,1 -1,1l-271 271 -465 0c-124,0 -225,101 -225,225l0 1350c0,124 101,225 225,225l33 0 -1140 1140 80 80 1220 -1220 990 0 1182 0c124,0 225,-101 225,-225l0 -1350c0,-124 -101,-225 -225,-225zm-1182 336c-280,0 -506,227 -506,506 0,91 24,176 66,250l-82 82c-61,-96 -97,-210 -97,-332 0,-341 278,-619 619,-619 122,0 236,36 332,97l-82 82c-74,-42 -159,-66 -250,-66zm-373 849c93,101 225,164 373,164 280,0 506,-227 506,-507 0,-148 -63,-281 -164,-373l79 -79c121,113 197,274 197,453 0,341 -278,619 -619,619 -179,0 -340,-76 -453,-197l79 -79zm373 52c-116,0 -221,-51 -293,-131l556 -556c81,72 131,177 131,293 0,217 -177,394 -394,394zm-357 -227c-24,-51 -37,-107 -37,-167 0,-217 177,-394 394,-394 60,0 116,13 167,37l-523 523zm357 -898c-404,0 -732,327 -732,731 0,153 47,296 128,413l-433 433 -145 0c-62,0 -113,-51 -113,-113l0 -1350c0,-62 51,-113 113,-113l465 0 47 0 33 -33 271 -271c22,-22 50,-33 80,-33l286 0 286 0c30,0 58,12 80,33l239 239 -191 191c-118,-81 -260,-128 -413,-128zm-532 1233c133,142 323,230 532,230 404,0 732,-328 732,-732 0,-210 -88,-399 -230,-532l197 -197 18 0 465 0c62,0 113,50 113,113l0 1350c0,62 -51,113 -113,113l-1182 0 -877 0 345 -345z"/>
 </g>
</svg>
