<?xml version="1.0" encoding="UTF-8"?>
<!DOCTYPE svg PUBLIC "-//W3C//DTD SVG 1.1//EN" "http://www.w3.org/Graphics/SVG/1.1/DTD/svg11.dtd">
<!-- Creator: CorelDRAW X7 -->
<svg xmlns="http://www.w3.org/2000/svg" xml:space="preserve" preserveAspectRatio="xMinYMin meet" version="1.1" style="shape-rendering:geometricPrecision; text-rendering:geometricPrecision; image-rendering:optimizeQuality; fill-rule:evenodd; clip-rule:evenodd"
viewBox="0 0 85120 14834"
 xmlns:xlink="http://www.w3.org/1999/xlink">
 <defs>
  <style type="text/css">
   <![CDATA[
    .fil0 {fill:none}
    .fil1 {fill:#090909;fill-rule:nonzero}
   ]]>
  </style>
 </defs>
 <g id="Camada_x0020_1">
  <metadata id="CorelCorpID_0Corel-Layer"/>
  <rect class="fil0" width="85120" height="14834"/>
  <path class="fil1" d="M21386 13932l581 -3088c162,0 2074,1007 3980,-681 2108,-1865 2493,-6632 -713,-6642 -932,-3 -1778,486 -2342,1223l-30 0 134 -1119 -1924 0c-408,3437 -1186,6909 -1834,10307l2147 0 1 0zm-19553 -1259c2865,2865 8082,2830 11654,-78 3571,-2908 4143,-7588 1279,-10452 -2865,-2865 -8083,-2830 -11654,77 -3571,2908 -4144,7588 -1279,10453zm6421 -3517c1112,-97 1691,-997 582,-1393 -878,-313 -2111,-664 -2069,-1786 46,-1256 1627,-1623 2673,-1634l205 -402 862 9 -210 442 940 152 -244 884c-645,-173 -2906,-510 -2945,484 -12,291 207,449 500,565l1 -1 739 268 -4 10c709,284 1487,625 1455,1480 -54,1394 -1712,1833 -2872,1839l-24 55c1477,243 3534,-781 4169,-1762 1247,-1927 1234,-4607 -1225,-5231 -2262,-574 -4599,1013 -5803,2788 -1370,2022 -982,4945 1687,5738 1193,354 3801,75 4997,-418 -2623,1949 -6595,2207 -8448,188 -3258,-3549 695,-8518 4413,-9528 3132,-852 7070,-20 6549,4683 -281,2533 -3146,4117 -5585,4051 -491,-14 -974,-3 -1686,-149l-91 -1 190 -432 -1280 -230 267 -964c727,243 1495,279 2257,295l0 0zm35061 1405c1511,1076 5583,801 5578,-1999 -3,-1784 -2526,-1974 -2521,-2819 6,-1037 1854,-588 2402,-328l507 -1521c-1485,-848 -5074,-413 -5072,2147 2,1780 2461,1874 2446,2864 -17,1203 -2271,428 -2819,150l-522 1506 1 0zm11998 -1566c-1021,506 -3669,959 -3669,-836 1792,49 4735,-106 4728,-2446 -8,-3140 -5443,-3025 -6598,1017 -676,2369 336,4393 2973,4398 899,1 1897,-169 2715,-582l-149 -1551 0 0zm-955 -3282c0,939 -1775,890 -2506,880 360,-1649 2506,-1966 2506,-880zm2035 7921c1302,716 4699,866 5931,-1211 424,-714 657,-1545 811,-2384l1104 -6011c-3639,-1492 -7630,335 -7593,4281 25,2553 2847,3609 4430,1521l30 0c-340,1788 -832,2756 -2804,2535 -460,-51 -1010,-143 -1402,-373l-508 1641 1 1zm5146 -6385c-582,2910 -3369,2509 -2462,-288 454,-1398 1747,-2178 2835,-1666l-373 1954 0 0zm8567 -3564c-206,1090 -578,3727 -1054,4631 -724,1375 -2266,1624 -2048,-211 160,-1352 558,-3048 820,-4420l-2147 0c-212,1110 -928,4306 -925,5414 7,2682 2901,2564 4385,686l30 15 -134 1178 1894 0 1328 -7293 -2148 0 -1 0zm4317 7293c203,-1087 407,-2721 785,-3731 376,-1003 1212,-1797 2347,-1608l418 -2104c-907,0 -1440,68 -2116,786 -236,249 -440,540 -614,870l-45 0 134 -1506 -1864 0c-322,2946 -594,4124 -1193,7293l2148 0 0 0zm6315 164c4985,-19 6065,-7621 1253,-7622 -4895,0 -6170,7622 -1253,7622zm284 -1640c-2321,-24 -806,-5297 1225,-4222 1345,712 306,4222 -1225,4222zm-58443 -1910c580,-3028 3314,-3113 2657,-266 -256,1109 -1177,2599 -2505,2098 -162,-62 -301,-144 -421,-251l269 -1581 0 0zm11968 3386c-74,-2291 625,-4919 1059,-7100 -3847,-1206 -7632,642 -7622,4728 7,2998 3259,3394 4654,925l29 0 -89 1447 1969 0 0 0zm-1685 -4087c-769,4081 -3822,2674 -2195,-350 553,-1028 1394,-1543 2538,-1335l-343 1685zm2765 6742c1302,717 4699,867 5931,-1210 424,-714 657,-1545 811,-2384l1104 -6012c-3639,-1492 -7630,336 -7593,4281 25,2554 2847,3609 4430,1522l30 0c-340,1787 -832,2756 -2804,2535 -460,-51 -1010,-143 -1402,-373l-507 1641 0 0zm5146 -6384c-582,2910 -3369,2509 -2461,-288 453,-1398 1746,-2178 2834,-1666l-373 1954 0 0z"/>
 </g>
</svg>
